{
  "accessors": [
    {
      "bufferView": 2,
      "componentType": 5126,
      "count": 24,
      "max": [
        1.0,
        1.0,
        1.0
      ],
      "min": [
        -1.0,
        -1.0,
        -1.0
      ],
      "type": "VEC3"
    },
    {
      "bufferView": 2,
      "byteOffset": 288,
      "componentType": 5126,
      "count": 24,
      "max": [
        1.0,
        1.0,
        1.0
      ],
      "min": [
        -1.0,
        -1.0,
        -1.0
      ],
      "type": "VEC3"
    },
    {
      "bufferView": 1,
      "componentType": 5126,
      "count": 24,
      "max": [
        0.7499567270278931,
        0.9999133944511414
      ],
      "min": [
        8.658754813950509e-05,
        8.660554885864258e-05
      ],
      "type": "VEC2"
    },
    {
      "bufferView": 0,
      "componentType": 5125,
      "count": 36,
      "type": "SCALAR"
    },
    {
      "bufferView": 2,
      "byteOffset": 576,
      "componentType": 5126,
      "count": 65532,
      "max": [
        4.595445156097412,
        1.2164936065673828,
        1.8741228580474854
      ],
      "min": [
        -4.813520908355713,
        -1.990652084350586,
        -2.318646192550659
      ],
      "type": "VEC3"
    },
    {
      "bufferView": 2,
      "byteOffset": 786960,
      "componentType": 5126,
      "count": 65532,
      "max": [
        0.9160093665122986,
        0.9897534251213074,
        0.9961850047111511
      ],
      "min": [
        -0.8591645359992981,
        -0.9998432993888855,
        -0.9997679591178894
      ],
      "type": "VEC3"
    },
    {
      "bufferView": 1,
      "byteOffset": 192,
      "componentType": 5126,
      "count": 65532,
      "max": [
        0.9993550181388855,
        0.9993399977684021
      ],
      "min": [
        0.0003549999964889139,
        0.012742996215820313
      ],
      "type": "VEC2"
    },
    {
      "bufferView": 0,
      "byteOffset": 144,
      "componentType": 5125,
      "count": 303315,
      "type": "SCALAR"
    },
    {
      "bufferView": 2,
      "byteOffset": 1573344,
      "componentType": 5126,
      "count": 65532,
      "max": [
        4.586577892303467,
        2.0843868255615234,
        2.689100742340088
      ],
      "min": [
        -4.964753150939941,
        -2.0248336791992188,
        -2.285635232925415
      ],
      "type": "VEC3"
    },
    {
      "bufferView": 2,
      "byteOffset": 2359728,
      "componentType": 5126,
      "count": 65532,
      "max": [
        0.999483585357666,
        0.9998080134391785,
        0.9996268153190613
      ],
      "min": [
        -0.7450672388076782,
        -0.9998506903648376,
        -0.9995055794715881
      ],
      "type": "VEC3"
    },
    {
      "bufferView": 1,
      "byteOffset": 524448,
      "componentType": 5126,
      "count": 65532,
      "max": [
        0.9996479749679565,
        0.9994760155677795
      ],
      "min": [
        0.0004619999963324517,
        0.0003110170364379883
      ],
      "type": "VEC2"
    },
    {
      "bufferView": 0,
      "byteOffset": 1213404,
      "componentType": 5125,
      "count": 279231,
      "type": "SCALAR"
    },
    {
      "bufferView": 2,
      "byteOffset": 3146112,
      "componentType": 5126,
      "count": 65532,
      "max": [
        4.610022068023682,
        2.4330062866210938,
        2.620830774307251
      ],
      "min": [
        -5.4970550537109375,
        -1.893838882446289,
        -2.313568115234375
      ],
      "type": "VEC3"
    },
    {
      "bufferView": 2,
      "byteOffset": 3932496,
      "componentType": 5126,
      "count": 65532,
      "max": [
        0.998060941696167,
        0.9999620318412781,
        0.9999943375587463
      ],
      "min": [
        -0.9963675141334534,
        -0.9999873042106628,
        -0.9999886751174927
      ],
      "type": "VEC3"
    },
    {
      "bufferView": 1,
      "byteOffset": 1048704,
      "componentType": 5126,
      "count": 65532,
      "max": [
        0.9996070265769958,
        0.9995260238647461
      ],
      "min": [
        0.000307999987853691,
        0.00034797191619873047
      ],
      "type": "VEC2"
    },
    {
      "bufferView": 0,
      "byteOffset": 2330328,
      "componentType": 5125,
      "count": 249048,
      "type": "SCALAR"
    },
    {
      "bufferView": 2,
      "byteOffset": 4718880,
      "componentType": 5126,
      "count": 65533,
      "max": [
        4.605624198913574,
        2.4457969665527344,
        2.670020818710327
      ],
      "min": [
        -5.519546985626221,
        -2.0687332153320313,
        -2.316810131072998
      ],
      "type": "VEC3"
    },
    {
      "bufferView": 2,
      "byteOffset": 5505276,
      "componentType": 5126,
      "count": 65533,
      "max": [
        0.9911539554595947,
        0.9999987483024597,
        0.9986889362335205
      ],
      "min": [
        -0.9951004981994629,
        -0.9999658465385437,
        -0.9999886751174927
      ],
      "type": "VEC3"
    },
    {
      "bufferView": 1,
      "byteOffset": 1572960,
      "componentType": 5126,
      "count": 65533,
      "max": [
        0.9996140003204346,
        0.9995279908180237
      ],
      "min": [
        0.00040600000647827983,
        0.00031697750091552734
      ],
      "type": "VEC2"
    },
    {
      "bufferView": 0,
      "byteOffset": 3326520,
      "componentType": 5125,
      "count": 178797,
      "type": "SCALAR"
    },
    {
      "bufferView": 2,
      "byteOffset": 6291672,
      "componentType": 5126,
      "count": 47116,
      "max": [
        4.608074188232422,
        2.47784423828125,
        2.6875648498535156
      ],
      "min": [
        -5.502387046813965,
        -2.0765151977539063,
        -2.318646192550659
      ],
      "type": "VEC3"
    },
    {
      "bufferView": 2,
      "byteOffset": 6857064,
      "componentType": 5126,
      "count": 47116,
      "max": [
        0.9994805455207825,
        0.9999760389328003,
        0.9998564124107361
      ],
      "min": [
        -0.998812735080719,
        -0.9998860955238342,
        -0.999959409236908
      ],
      "type": "VEC3"
    },
    {
      "bufferView": 1,
      "byteOffset": 2097224,
      "componentType": 5126,
      "count": 47116,
      "max": [
        0.9996920228004456,
        0.9994500279426575
      ],
      "min": [
        0.00035700001171790063,
        0.000308990478515625
      ],
      "type": "VEC2"
    },
    {
      "bufferView": 0,
      "byteOffset": 4041708,
      "componentType": 5125,
      "count": 75300,
      "type": "SCALAR"
    },
    {
      "bufferView": 2,
      "byteOffset": 7422456,
      "componentType": 5126,
      "count": 65532,
      "max": [
        4.610743045806885,
        2.47784423828125,
        2.689100742340088
      ],
      "min": [
        -5.540857791900635,
        -2.0749902725219727,
        -2.3177831172943115
      ],
      "type": "VEC3"
    },
    {
      "bufferView": 2,
      "byteOffset": 8208840,
      "componentType": 5126,
      "count": 65532,
      "max": [
        0.9998612999916077,
        0.9999039769172668,
        0.9999494552612305
      ],
      "min": [
        -0.8893247842788696,
        -0.9999985098838806,
        -0.9998502135276794
      ],
      "type": "VEC3"
    },
    {
      "bufferView": 1,
      "byteOffset": 2474152,
      "componentType": 5126,
      "count": 65532,
      "max": [
        1.9989659786224365,
        0.9990270137786865
      ],
      "min": [
        1.0003310441970825,
        0.0003280043601989746
      ],
      "type": "VEC2"
    },
    {
      "bufferView": 0,
      "byteOffset": 4342908,
      "componentType": 5125,
      "count": 286629,
      "type": "SCALAR"
    },
    {
      "bufferView": 2,
      "byteOffset": 8995224,
      "componentType": 5126,
      "count": 65532,
      "max": [
        4.597550868988037,
        2.47784423828125,
        2.6569418907165527
      ],
      "min": [
        -5.513082981109619,
        -2.0502662658691406,
        -2.308082103729248
      ],
      "type": "VEC3"
    },
    {
      "bufferView": 2,
      "byteOffset": 9781608,
      "componentType": 5126,
      "count": 65532,
      "max": [
        0.9997578859329224,
        0.9999945163726807,
        0.9993234276771545
      ],
      "min": [
        -0.9939873218536377,
        -0.9999985098838806,
        -0.999926745891571
      ],
      "type": "VEC3"
    },
    {
      "bufferView": 1,
      "byteOffset": 2998408,
      "componentType": 5126,
      "count": 65532,
      "max": [
        1.9992519617080688,
        0.9992470145225525
      ],
      "min": [
        1.00034499168396,
        0.0003139972686767578
      ],
      "type": "VEC2"
    },
    {
      "bufferView": 0,
      "byteOffset": 5489424,
      "componentType": 5125,
      "count": 253215,
      "type": "SCALAR"
    },
    {
      "bufferView": 2,
      "byteOffset": 10567992,
      "componentType": 5126,
      "count": 65532,
      "max": [
        4.610743045806885,
        2.4560089111328125,
        2.6742117404937744
      ],
      "min": [
        -5.488415241241455,
        -2.0561742782592773,
        -2.2808542251586914
      ],
      "type": "VEC3"
    },
    {
      "bufferView": 2,
      "byteOffset": 11354376,
      "componentType": 5126,
      "count": 65532,
      "max": [
        0.9967937469482422,
        0.999992311000824,
        0.9993433952331543
      ],
      "min": [
        -0.9314830303192139,
        -0.9999778270721436,
        -0.9999691247940063
      ],
      "type": "VEC3"
    },
    {
      "bufferView": 1,
      "byteOffset": 3522664,
      "componentType": 5126,
      "count": 65532,
      "max": [
        1.9996689558029175,
        0.9991660118103027
      ],
      "min": [
        1.000309944152832,
        0.0003139972686767578
      ],
      "type": "VEC2"
    },
    {
      "bufferView": 0,
      "byteOffset": 6502284,
      "componentType": 5125,
      "count": 208152,
      "type": "SCALAR"
    },
    {
      "bufferView": 2,
      "byteOffset": 12140760,
      "componentType": 5126,
      "count": 65532,
      "max": [
        4.610022068023682,
        2.476247787475586,
        2.689100742340088
      ],
      "min": [
        -5.526230812072754,
        -2.0765151977539063,
        -2.317265033721924
      ],
      "type": "VEC3"
    },
    {
      "bufferView": 2,
      "byteOffset": 12927144,
      "componentType": 5126,
      "count": 65532,
      "max": [
        0.9970207810401917,
        0.9999991655349731,
        0.9996178150177002
      ],
      "min": [
        -1.0,
        -0.9999353885650635,
        -0.999932587146759
      ],
      "type": "VEC3"
    },
    {
      "bufferView": 1,
      "byteOffset": 4046920,
      "componentType": 5126,
      "count": 65532,
      "max": [
        1.9996329545974731,
        0.9994549751281738
      ],
      "min": [
        1.0003160238265991,
        0.00030797719955444336
      ],
      "type": "VEC2"
    },
    {
      "bufferView": 0,
      "byteOffset": 7334892,
      "componentType": 5125,
      "count": 155649,
      "type": "SCALAR"
    },
    {
      "bufferView": 2,
      "byteOffset": 13713528,
      "componentType": 5126,
      "count": 44585,
      "max": [
        4.610743045806885,
        2.47784423828125,
        2.689100742340088
      ],
      "min": [
        -5.540857791900635,
        -2.054983139038086,
        -2.318646192550659
      ],
      "type": "VEC3"
    },
    {
      "bufferView": 2,
      "byteOffset": 14248548,
      "componentType": 5126,
      "count": 44585,
      "max": [
        0.999494731426239,
        0.9999903440475464,
        0.9999494552612305
      ],
      "min": [
        -0.9999656677246094,
        -0.9999703168869019,
        -0.9999616742134094
      ],
      "type": "VEC3"
    },
    {
      "bufferView": 1,
      "byteOffset": 4571176,
      "componentType": 5126,
      "count": 44585,
      "max": [
        1.999627947807312,
        0.9992669820785522
      ],
      "min": [
        1.000311017036438,
        0.0003070235252380371
      ],
      "type": "VEC2"
    },
    {
      "bufferView": 0,
      "byteOffset": 7957488,
      "componentType": 5125,
      "count": 68475,
      "type": "SCALAR"
    }
  ],
  "asset": {
    "extras": {
      "author": "ffish.asia / floraZia.com (https://sketchfab.com/ffishAsia-and-floraZia)",
      "license": "CC-BY-4.0 (http://creativecommons.org/licenses/by/4.0/)",
      "source": "https://sketchfab.com/3d-models/pale-chub-zacco-platypus-44f5bb54600d42619bc7e65c8fe909e7",
      "title": "オイカワ ♂ Pale Chub, Zacco platypus"
    },
    "generator": "Sketchfab-11.99.0",
    "version": "2.0"
  },
  "bufferViews": [
    {
      "buffer": 0,
      "byteLength": 8231388,
      "name": "floatBufferViews",
      "target": 34963
    },
    {
      "buffer": 0,
      "byteLength": 4927856,
      "byteOffset": 8231388,
      "byteStride": 8,
      "name": "floatBufferViews",
      "target": 34962
    },
    {
      "buffer": 0,
      "byteLength": 14783568,
      "byteOffset": 13159244,
      "byteStride": 12,
      "name": "floatBufferViews",
      "target": 34962
    }
  ],
  "buffers": [
    {
      "byteLength": 27942812,
      "uri": "scene.bin"
    }
  ],
  "extensionsUsed": [
    "KHR_materials_unlit"
  ],
  "images": [
    {
      "uri": "textures/Material.001_baseColor.jpeg"
    },
    {
      "uri": "textures/Q11259-1all-2_tex0.001_baseColor.jpeg"
    },
    {
      "uri": "textures/Q11259-1all-2_tex1.001_baseColor.jpeg"
    }
  ],
  "materials": [
    {
      "doubleSided": true,
      "extensions": {
        "KHR_materials_unlit": {}
      },
      "name": "Material.001",
      "pbrMetallicRoughness": {
        "baseColorTexture": {
          "index": 0
        },
        "metallicFactor": 0.0
      }
    },
    {
      "doubleSided": true,
      "extensions": {
        "KHR_materials_unlit": {}
      },
      "name": "Q11259-1all-2_tex0.001",
      "pbrMetallicRoughness": {
        "baseColorTexture": {
          "index": 1
        },
        "metallicFactor": 0.0
      }
    },
    {
      "doubleSided": true,
      "extensions": {
        "KHR_materials_unlit": {}
      },
      "name": "Q11259-1all-2_tex1.001",
      "pbrMetallicRoughness": {
        "baseColorTexture": {
          "index": 2
        },
        "metallicFactor": 0.0
      }
    }
  ],
  "meshes": [
    {
      "name": "Object_0",
      "primitives": [
        {
          "attributes": {
            "NORMAL": 1,
            "POSITION": 0,
            "TEXCOORD_0": 2
          },
          "indices": 3,
          "material": 0,
          "mode": 4
        }
      ]
    },
    {
      "name": "Object_1",
      "primitives": [
        {
          "attributes": {
            "NORMAL": 5,
            "POSITION": 4,
            "TEXCOORD_0": 6
          },
          "indices": 7,
          "material": 1,
          "mode": 4
        }
      ]
    },
    {
      "name": "Object_2",
      "primitives": [
        {
          "attributes": {
            "NORMAL": 9,
            "POSITION": 8,
            "TEXCOORD_0": 10
          },
          "indices": 11,
          "material": 1,
          "mode": 4
        }
      ]
    },
    {
      "name": "Object_3",
      "primitives": [
        {
          "attributes": {
            "NORMAL": 13,
            "POSITION": 12,
            "TEXCOORD_0": 14
          },
          "indices": 15,
          "material": 1,
          "mode": 4
        }
      ]
    },
    {
      "name": "Object_4",
      "primitives": [
        {
          "attributes": {
            "NORMAL": 17,
            "POSITION": 16,
            "TEXCOORD_0": 18
          },
          "indices": 19,
          "material": 1,
          "mode": 4
        }
      ]
    },
    {
      "name": "Object_5",
      "primitives": [
        {
          "attributes": {
            "NORMAL": 21,
            "POSITION": 20,
            "TEXCOORD_0": 22
          },
          "indices": 23,
          "material": 1,
          "mode": 4
        }
      ]
    },
    {
      "name": "Object_6",
      "primitives": [
        {
          "attributes": {
            "NORMAL": 25,
            "POSITION": 24,
            "TEXCOORD_0": 26
          },
          "indices": 27,
          "material": 2,
          "mode": 4
        }
      ]
    },
    {
      "name": "Object_7",
      "primitives": [
        {
          "attributes": {
            "NORMAL": 29,
            "POSITION": 28,
            "TEXCOORD_0": 30
          },
          "indices": 31,
          "material": 2,
          "mode": 4
        }
      ]
    },
    {
      "name": "Object_8",
      "primitives": [
        {
          "attributes": {
            "NORMAL": 33,
            "POSITION": 32,
            "TEXCOORD_0": 34
          },
          "indices": 35,
          "material": 2,
          "mode": 4
        }
      ]
    },
    {
      "name": "Object_9",
      "primitives": [
        {
          "attributes": {
            "NORMAL": 37,
            "POSITION": 36,
            "TEXCOORD_0": 38
          },
          "indices": 39,
          "material": 2,
          "mode": 4
        }
      ]
    },
    {
      "name": "Object_10",
      "primitives": [
        {
          "attributes": {
            "NORMAL": 41,
            "POSITION": 40,
            "TEXCOORD_0": 42
          },
          "indices": 43,
          "material": 2,
          "mode": 4
        }
      ]
    }
  ],
  "nodes": [
    {
      "children": [
        1
      ],
      "matrix": [
        1.0,
        0.0,
        0.0,
        0.0,
        0.0,
        2.220446049250313e-16,
        -1.0,
        0.0,
        0.0,
        1.0,
        2.220446049250313e-16,
        0.0,
        0.0,
        0.0,
        0.0,
        1.0
      ],
      "name": "Sketchfab_model"
    },
    {
      "children": [
        2
      ],
      "name": "root"
    },
    {
      "children": [
        3,
        5
      ],
      "matrix": [
        1.0,
        0.0,
        0.0,
        0.0,
        0.0,
        2.220446049250313e-16,
        1.0,
        0.0,
        0.0,
        -1.0,
        2.220446049250313e-16,
        0.0,
        0.0,
        0.0,
        0.0,
        1.0
      ],
      "name": "GLTF_SceneRootNode"
    },
    {
      "children": [
        4
      ],
      "matrix": [
        -0.0006157103346289193,
        -0.3324024653007628,
        0.0011856083599022709,
        0.0,
        0.001534595721009565,
        -0.0011884404728576695,
        -0.3323995426522499,
        0.0,
        0.33240109693987224,
        -0.0006102264184524817,
        0.001536784661976889,
        0.0,
        6.660431861877441,
        -1.9835559129714966,
        0.01802721805870533,
        1.0
      ],
      "name": "Cube_2"
    },
    {
      "mesh": 0,
      "name": "Object_4"
    },
    {
      "children": [
        6,
        7,
        8,
        9,
        10,
        11,
        12,
        13,
        14,
        15
      ],
      "matrix": [
        -0.9482528574306124,
        0.23198242111550033,
        -0.21679638988707728,
        0.0,
        0.13799838400074943,
        0.9160368280191458,
        0.37660719022053163,
        0.0,
        0.285959725115025,
        0.32720129279392013,
        -0.9006477389113496,
        0.0,
        0.0,
        -0.14960481226444244,
        0.0,
        1.0
      ],
      "name": "Q11259-1all-2.001_5"
    },
    {
      "mesh": 1,
      "name": "Object_6"
    },
    {
      "mesh": 2,
      "name": "Object_7"
    },
    {
      "mesh": 3,
      "name": "Object_8"
    },
    {
      "mesh": 4,
      "name": "Object_9"
    },
    {
      "mesh": 5,
      "name": "Object_10"
    },
    {
      "mesh": 6,
      "name": "Object_11"
    },
    {
      "mesh": 7,
      "name": "Object_12"
    },
    {
      "mesh": 8,
      "name": "Object_13"
    },
    {
      "mesh": 9,
      "name": "Object_14"
    },
    {
      "mesh": 10,
      "name": "Object_15"
    }
  ],
  "samplers": [
    {
      "magFilter": 9729,
      "minFilter": 9987,
      "wrapS": 10497,
      "wrapT": 10497
    }
  ],
  "scene": 0,
  "scenes": [
    {
      "name": "Sketchfab_Scene",
      "nodes": [
        0
      ]
    }
  ],
  "textures": [
    {
      "sampler": 0,
      "source": 0
    },
    {
      "sampler": 0,
      "source": 1
    },
    {
      "sampler": 0,
      "source": 2
    }
  ]
}
